# xmcd
#
# Track frame offsets:
#	150
#	12085
#	24072
#	39155
#	52635
#	69192
#	82675
#	94730
#	108457
#	129204
#	144695
#
# Disc length: 2116 seconds
#
# Revision: 0
# Processed by: cddbd v1.5.2PL0 Copyright (c) Steve Scherf et al.
# Submitted via: EasyCDDAExtractor 10.0.6.1
#
DISCID=6d08420b
DTITLE=Various Artist - CedarHill and Harvest Records Jan. 96
DYEAR=1996
DGENRE=Gospel
TTITLE0=The Hunts - A Nice Place To Visit
TTITLE1=Full Circle - A Better Friend
TTITLE2=The Johnsons - He Is Jehovah
TTITLE3=Jim Newman - Lord Reach Down And Touch Me
TTITLE4=Terry Tidwell Trio - Prison To Paradise
TTITLE5=Dedication - You Sho Do Need Him
TTITLE6=The Crabb Family - Where Would I Be
TTITLE7=The Van Houtens - From Heaven To The Cross
TTITLE8=The Shaws - Good Morning Holy Spirit
TTITLE9=Jamie Brabham - His Love
TTITLE10=Frances Simpson - Jesus Is Hope
EXTD=
EXTT0=
EXTT1=
EXTT2=
EXTT3=
EXTT4=
EXTT5=
EXTT6=
EXTT7=
EXTT8=
EXTT9=
EXTT10=
PLAYORDER=
